<svg width="36" height="20" viewBox="0 0 36 20" fill="none" xmlns="http://www.w3.org/2000/svg">
<path d="M2.4 10.8466H9.36V12.9866H2.4V10.8466ZM2.6 16.8466H10.5V19.0266H-4.79817e-06V5.02661H10.22V7.20661H2.6V16.8466Z" fill="white"/>
<path d="M29.7249 19.2C28.6583 19.2 27.6649 19.0267 26.7449 18.68C25.8383 18.32 25.0449 17.82 24.3649 17.18C23.6983 16.5267 23.1783 15.76 22.8049 14.88C22.4316 14 22.2449 13.04 22.2449 12C22.2449 10.96 22.4316 10 22.8049 9.12C23.1783 8.24 23.7049 7.48 24.3849 6.84C25.0649 6.18667 25.8583 5.68667 26.7649 5.34C27.6716 4.98 28.6649 4.8 29.7449 4.8C30.8916 4.8 31.9383 5 32.8849 5.4C33.8316 5.78667 34.6316 6.36667 35.2849 7.14L33.6049 8.72C33.0983 8.17333 32.5316 7.76667 31.9049 7.5C31.2783 7.22 30.5983 7.08 29.8649 7.08C29.1316 7.08 28.4583 7.2 27.8449 7.44C27.2449 7.68 26.7183 8.02 26.2649 8.46C25.8249 8.9 25.4783 9.42 25.2249 10.02C24.9849 10.62 24.8649 11.28 24.8649 12C24.8649 12.72 24.9849 13.38 25.2249 13.98C25.4783 14.58 25.8249 15.1 26.2649 15.54C26.7183 15.98 27.2449 16.32 27.8449 16.56C28.4583 16.8 29.1316 16.92 29.8649 16.92C30.5983 16.92 31.2783 16.7867 31.9049 16.52C32.5316 16.24 33.0983 15.82 33.6049 15.26L35.2849 16.86C34.6316 17.62 33.8316 18.2 32.8849 18.6C31.9383 19 30.8849 19.2 29.7249 19.2Z" fill="white"/>
<path d="M10.1111 19V5H16.2311C17.7511 5 19.0844 5.29333 20.2311 5.88C21.3777 6.46667 22.2711 7.28 22.9111 8.32C23.5511 9.36 23.8711 10.5867 23.8711 12C23.8711 13.4 23.5511 14.6267 22.9111 15.68C22.2711 16.72 21.3777 17.5333 20.2311 18.12C19.0844 18.7067 17.7511 19 16.2311 19H10.1111ZM12.7111 16.8H16.1111C17.1644 16.8 18.0711 16.6 18.8311 16.2C19.6044 15.8 20.1977 15.24 20.6111 14.52C21.0377 13.8 21.2511 12.96 21.2511 12C21.2511 11.0267 21.0377 10.1867 20.6111 9.48C20.1977 8.76 19.6044 8.2 18.8311 7.8C18.0711 7.4 17.1644 7.2 16.1111 7.2H12.7111V16.8Z" fill="white"/>
</svg>
